<?xml version="1.0" encoding="UTF-8"?>
<svg id="Capa_1" xmlns="http://www.w3.org/2000/svg" version="1.1" xmlns:xlink="http://www.w3.org/1999/xlink" viewBox="0 0 63 40">
  <!-- Generator: Adobe Illustrator 29.0.1, SVG Export Plug-In . SVG Version: 2.1.0 Build 192)  -->
  <defs>
    <style>
      .st0 {
        fill: url(#Degradado_sin_nombre_5059);
      }

      .st1 {
        fill: url(#Degradado_sin_nombre_5051);
      }

      .st2 {
        fill: url(#Degradado_sin_nombre_50517);
      }

      .st3 {
        fill: url(#Degradado_sin_nombre_50520);
      }

      .st4 {
        fill: url(#Degradado_sin_nombre_50514);
      }

      .st5 {
        fill: url(#Degradado_sin_nombre_505);
      }

      .st6 {
        fill: url(#Degradado_sin_nombre_5056);
      }

      .st7 {
        fill: url(#Degradado_sin_nombre_50518);
      }

      .st8 {
        fill: url(#Degradado_sin_nombre_5055);
      }

      .st9 {
        fill: url(#Degradado_sin_nombre_5053);
      }

      .st10 {
        fill: url(#Degradado_sin_nombre_481);
      }

      .st11 {
        fill: url(#Degradado_sin_nombre_50511);
      }

      .st12 {
        fill: url(#Degradado_sin_nombre_50515);
      }

      .st13 {
        fill: url(#Degradado_sin_nombre_50513);
      }

      .st14 {
        fill: url(#Degradado_sin_nombre_50512);
      }

      .st15 {
        fill: url(#Degradado_sin_nombre_5052);
      }

      .st16 {
        fill: url(#Degradado_sin_nombre_50519);
      }

      .st17 {
        fill: url(#Degradado_sin_nombre_5058);
      }

      .st18 {
        fill: url(#Degradado_sin_nombre_50516);
      }

      .st19 {
        fill: url(#Degradado_sin_nombre_5057);
      }

      .st20 {
        fill: url(#Degradado_sin_nombre_50510);
      }

      .st21 {
        fill: url(#Degradado_sin_nombre_5054);
      }
    </style>
    <linearGradient id="Degradado_sin_nombre_481" data-name="Degradado sin nombre 481" x1="10.84" y1="36.39" x2="15.8" y2="36.39" gradientUnits="userSpaceOnUse">
      <stop offset="0" stop-color="#203a72"/>
      <stop offset="1" stop-color="#29618d"/>
    </linearGradient>
    <linearGradient id="Degradado_sin_nombre_505" data-name="Degradado sin nombre 505" x1="4.79" y1="24.38" x2="8.5" y2="20.68" gradientUnits="userSpaceOnUse">
      <stop offset="0" stop-color="#203a72"/>
      <stop offset="1" stop-color="#69c3ca"/>
    </linearGradient>
    <linearGradient id="Degradado_sin_nombre_5051" data-name="Degradado sin nombre 505" x1="34.61" y1="15.23" x2="38.39" y2="11.46" xlink:href="#Degradado_sin_nombre_505"/>
    <linearGradient id="Degradado_sin_nombre_5052" data-name="Degradado sin nombre 505" x1="37.97" y1="9.71" x2="40.4" y2="7.29" xlink:href="#Degradado_sin_nombre_505"/>
    <linearGradient id="Degradado_sin_nombre_5053" data-name="Degradado sin nombre 505" x1="27.06" y1="11.31" x2="31.51" y2="6.86" xlink:href="#Degradado_sin_nombre_505"/>
    <linearGradient id="Degradado_sin_nombre_5054" data-name="Degradado sin nombre 505" x1="42.38" y1="14.96" x2="44.62" y2="12.72" xlink:href="#Degradado_sin_nombre_505"/>
    <linearGradient id="Degradado_sin_nombre_5055" data-name="Degradado sin nombre 505" x1="29.56" y1="14.39" x2="30.96" y2="13" xlink:href="#Degradado_sin_nombre_505"/>
    <linearGradient id="Degradado_sin_nombre_5056" data-name="Degradado sin nombre 505" x1="39.88" y1="12.92" x2="41.75" y2="11.06" xlink:href="#Degradado_sin_nombre_505"/>
    <linearGradient id="Degradado_sin_nombre_5057" data-name="Degradado sin nombre 505" x1="35.16" y1="8.33" x2="36.62" y2="6.86" xlink:href="#Degradado_sin_nombre_505"/>
    <linearGradient id="Degradado_sin_nombre_5058" data-name="Degradado sin nombre 505" x1="31.01" y1="13.97" x2="32.45" y2="12.52" xlink:href="#Degradado_sin_nombre_505"/>
    <linearGradient id="Degradado_sin_nombre_5059" data-name="Degradado sin nombre 505" x1="31.74" y1="7.64" x2="35.46" y2="3.92" xlink:href="#Degradado_sin_nombre_505"/>
    <linearGradient id="Degradado_sin_nombre_50510" data-name="Degradado sin nombre 505" x1="33.4" y1="10.31" x2="35.38" y2="8.33" xlink:href="#Degradado_sin_nombre_505"/>
    <linearGradient id="Degradado_sin_nombre_50511" data-name="Degradado sin nombre 505" x1="43.01" y1="11.6" x2="44.56" y2="10.04" xlink:href="#Degradado_sin_nombre_505"/>
    <linearGradient id="Degradado_sin_nombre_50512" data-name="Degradado sin nombre 505" x1="18.38" y1="47.29" x2="50.68" y2="14.99" xlink:href="#Degradado_sin_nombre_505"/>
    <linearGradient id="Degradado_sin_nombre_50513" data-name="Degradado sin nombre 505" x1="4.61" y1="31.23" x2="14.1" y2="21.74" xlink:href="#Degradado_sin_nombre_505"/>
    <linearGradient id="Degradado_sin_nombre_50514" data-name="Degradado sin nombre 505" x1="10.07" y1="28.84" x2="18.38" y2="20.52" xlink:href="#Degradado_sin_nombre_505"/>
    <linearGradient id="Degradado_sin_nombre_50515" data-name="Degradado sin nombre 505" x1="39.28" y1="18.2" x2="41.97" y2="15.51" xlink:href="#Degradado_sin_nombre_505"/>
    <linearGradient id="Degradado_sin_nombre_50516" data-name="Degradado sin nombre 505" x1="31.02" y1="16.44" x2="32.38" y2="15.08" xlink:href="#Degradado_sin_nombre_505"/>
    <linearGradient id="Degradado_sin_nombre_50517" data-name="Degradado sin nombre 505" x1="23.15" y1="24.04" x2="43.37" y2="3.82" xlink:href="#Degradado_sin_nombre_505"/>
    <linearGradient id="Degradado_sin_nombre_50518" data-name="Degradado sin nombre 505" x1="24.3" y1="23.21" x2="42.23" y2="5.28" xlink:href="#Degradado_sin_nombre_505"/>
    <linearGradient id="Degradado_sin_nombre_50519" data-name="Degradado sin nombre 505" x1="26.59" y1="16.69" x2="29.32" y2="13.97" xlink:href="#Degradado_sin_nombre_505"/>
    <linearGradient id="Degradado_sin_nombre_50520" data-name="Degradado sin nombre 505" x1="20.41" y1="16.34" x2="27.18" y2="9.58" xlink:href="#Degradado_sin_nombre_505"/>
  </defs>
  <rect class="st10" x="10.84" y="33.1" width="4.96" height="6.59"/>
  <g>
    <path class="st5" d="M3.24,22.35c.55,0,.98-.39,1.09-.91h4.3l2.77,2.67c.06-.06.12-.13.19-.19-.93-.98-1.85-1.95-2.78-2.93h0s0,0,0,0h-4.48c-.11-.51-.54-.91-1.09-.91-.63,0-1.14.51-1.14,1.14s.51,1.14,1.14,1.14ZM3.24,20.54c.37,0,.67.3.67.67h0c0,.37-.3.67-.67.67s-.67-.3-.67-.67.3-.67.67-.67Z"/>
    <path class="st1" d="M38.53,15.09l.49-.93-.32-.19.06-.7.41-.14-.3-1.01-.38.09-.43-.54.18-.37-.91-.52-.21.36-.69-.1-.16-.39-1,.28.11.41-.57.43-.35-.19-.52.9.35.22-.07.69-.42.13.29,1.01.41-.09.44.51-.21.38.93.54.2-.36.69.08.13.42,1.02-.32-.1-.39.56-.42.36.19ZM36.49,14.43c-.6,0-1.09-.49-1.09-1.09s.49-1.09,1.09-1.09,1.09.49,1.09,1.09-.49,1.09-1.09,1.09Z"/>
    <path class="st15" d="M37.45,8.63l.19.65.26-.06.28.33-.14.25.6.35.13-.23.45.05.08.27.65-.21-.07-.25.36-.27.23.12.32-.6-.21-.12.04-.45.27-.09-.19-.65-.25.06-.28-.35.12-.24-.58-.33-.14.23-.44-.06-.1-.25-.64.18.07.27-.36.28-.22-.12-.34.58.23.14-.05.44-.27.09ZM39.17,7.8c.39,0,.7.31.7.7s-.31.7-.7.7-.7-.31-.7-.7.31-.7.7-.7Z"/>
    <path class="st9" d="M26.94,10.4l.52.6-.25.45,1.1.64.23-.42.82.09.15.49,1.2-.38-.12-.46.67-.5.43.23.58-1.1-.38-.22.07-.83.49-.17-.36-1.19-.45.11-.51-.63.21-.44-1.07-.61-.25.42-.81-.12-.19-.47-1.18.33.13.49-.67.51-.41-.22-.62,1.07.41.26-.08.81-.49.16.35,1.19.48-.11ZM29.27,7.8c.71,0,1.29.58,1.29,1.29s-.58,1.29-1.29,1.29-1.29-.58-1.29-1.29.58-1.29,1.29-1.29Z"/>
    <path class="st21" d="M45.08,13.71l-.18-.6-.23.06-.26-.32.11-.22-.54-.31-.13.21-.41-.06-.09-.23-.59.17.06.25-.34.25-.2-.11-.31.54.21.13-.04.41-.25.08.17.6.24-.05.26.3-.13.23.55.32.12-.21.41.04.08.25.6-.19-.06-.23.33-.25.22.11.29-.55-.19-.11.03-.42.24-.08ZM43.5,14.49c-.36,0-.65-.29-.65-.65s.29-.65.65-.65.65.29.65.65-.29.65-.65.65Z"/>
    <path class="st8" d="M31.25,13.69c0-.55-.44-.99-.99-.99s-.99.44-.99.99.44.99.99.99.99-.44.99-.99ZM29.68,13.69c0-.32.26-.58.58-.58s.58.26.58.58-.26.58-.58.58-.58-.26-.58-.58Z"/>
    <path class="st6" d="M41.77,11.38c0-.4-.32-.72-.72-.72s-.72.32-.72.72c0,.28.17.52.4.64-.05-.01-.1-.03-.15-.03-.37,0-.68.3-.68.68s.3.68.68.68.68-.3.68-.68c0-.26-.16-.49-.38-.6.05.01.11.03.16.03.4,0,.72-.32.72-.72ZM40.98,12.66c0,.22-.18.4-.4.4s-.4-.18-.4-.4.18-.4.4-.4.4.18.4.4ZM40.62,11.38c0-.23.19-.43.43-.43s.43.19.43.43-.19.43-.43.43-.43-.19-.43-.43Z"/>
    <path class="st19" d="M35.89,6.56c-.57,0-1.04.47-1.04,1.04s.47,1.04,1.04,1.04,1.04-.47,1.04-1.04-.47-1.04-1.04-1.04ZM35.89,8.21c-.34,0-.61-.27-.61-.61s.27-.61.61-.61.61.27.61.61-.27.61-.61.61Z"/>
    <path class="st17" d="M31.41,14.31c0,.11.16.21.3.23.19.03.35-.09.41-.14.18-.14.25-.32.3-.46.02-.06.12-.35.07-.73-.03-.19-.09-.35-.23-.66-.2-.47-.3-.53-.34-.55-.16-.08-.4-.09-.53.05-.07.08-.11.21-.07.32.09.27.49.17.66.44.2.31.02,1-.37,1.28-.08.06-.21.13-.21.23Z"/>
    <path class="st0" d="M33.72,7.13c.11-.06.09-.1.3-.37.05-.07.09-.11.55-.57.27-.27.41-.41.46-.44.26-.12.63-.13.89.05.25.16.17.34.46.53.06.04.32.21.62.14.07-.02.29-.07.37-.28.06-.16.03-.36-.09-.46-.14-.11-.29.01-.55-.02-.32-.04-.4-.28-.69-.44-.36-.2-.87-.19-1.22-.02-.58.29-.5.94-1.19,1.31-.21.11-.39.15-.48.16-.22.04-.51.09-.66-.07-.13-.13-.03-.27-.16-.55-.08-.17-.19-.27-.34-.41-.12-.11-.37-.33-.73-.46-.5-.18-1.25-.21-1.42.11-.08.16-.02.39.09.46.09.05.16-.03.41-.07.02,0,.23-.03.46,0,.08.01.33.05.55.21.37.27.26.61.69.94.13.11.25.15.28.16.22.08.34.04.64.05.49.01.58.15.78.05Z"/>
    <path class="st20" d="M33.56,10.32c.04.13.11.33.28.39.18.07.41-.03.53-.18.15-.2.02-.4.18-.55.12-.11.31-.1.34-.09.17.02.2.12.34.16.22.07.51-.04.69-.25.26-.32.11-.71.09-.76-.03-.07-.07-.18-.16-.21-.12-.04-.27.06-.34.18-.13.21.03.41-.09.53-.11.11-.34.03-.37.02-.06-.02-.18-.06-.23-.16-.05-.11.02-.17,0-.34,0-.04-.03-.27-.18-.34-.14-.06-.35,0-.41.14-.08.18.18.32.16.66,0,.02-.02.31-.23.46-.03.02-.15.11-.23.07-.06-.03-.07-.1-.11-.41-.05-.29-.05-.28-.05-.3,0-.11.03-.17.11-.53,0-.02,0,0,0-.01.05-.2.07-.3.11-.35.08-.1.18-.02.3-.11.1-.08.16-.25.09-.39-.07-.13-.23-.17-.34-.16-.2.02-.32.21-.41.34-.12.18-.18.37-.21.57-.06.4.08.44.09,1.01,0,.27-.03.4.05.62Z"/>
    <path class="st11" d="M45.37,13.94c.04.08.14.15.23.14.25-.03.34-.64.34-.69.02-.12.07-.56-.18-.99-.11-.18-.13-.13-.39-.44-.4-.48-.36-.64-.66-.87-.27-.21-.37-.13-.48-.3-.21-.32.16-.61.02-1.03-.04-.12-.08-.13-.99-.85-.28-.22-.42-.33-.48-.39-.11-.1-.33-.31-.62-.55-.19-.16-.28-.22-.39-.21-.12.02-.23.13-.25.25-.02.13.08.26.55.64.36.29.64.48.64.48.07.04.12.08.17.12-.39.14-.67.49-.67.93,0,.55.44.99.99.99.28,0,.53-.12.71-.31.02.04.03.08.07.13.08.09.14.13.28.3.17.21.18.3.32.5.07.1.07.09.46.53.34.39.38.44.41.53.02.06.12.31.05.6-.06.25-.2.35-.14.48ZM43.21,10.78c-.32,0-.59-.26-.59-.59s.26-.59.59-.59c.23,0,.42.13.52.32.02.04.03.09.04.13.01.04.03.09.03.14,0,.32-.26.59-.59.59Z"/>
    <path class="st14" d="M54.01,18.32l-4.65-.04-4.55,11.46h4.46l2.33-5.74,2.68,7.24h-9.95l-1.72,3.96h-9.47c1.82-3.86,7.37-4.37,8.69-8.77.57-1.91.47-3.51-.09-4.8.15.34.48.58.88.58.53,0,.96-.43.96-.96,0-.48-.35-.85-.81-.93.09-.04.16-.09.2-.16.04-.1-.02-.16-.07-.34-.08-.3.13-.35.14-1.17,0-.09-.06-.15.03-.22.17-.13.32.03.6-.1.08-.04.11-.17.08-.42-.04-.33-.11-.37-.09-.57,0-.08.02-.27.16-.44.03-.04.22-.28.46-.25.25.03.26.32.62.44.11.04.2.04.32.05.2,0,.36.02.53-.07.16-.08.24-.22.34-.39.08-.14.16-.27.18-.46.02-.22-.06-.39-.23-.73-.15-.31-.23-.46-.39-.53-.02,0-.26-.11-.44.02-.11.08-.14.22-.16.32-.01.06-.06.29.02.3.29.03.13-.28.38-.17.07.03.08.15.15.26.07.1.14.2.14.34,0,.21-.14.35-.18.39-.03.03-.19.17-.37.14-.08-.01-.1-.05-.21-.11-.05-.03-.08-.05-.5-.23-.25-.11-.37-.16-.39-.16-.03,0-.36-.05-.62.16-.17.14-.22.32-.3.6-.06.22-.08.41-.09.55-.04.44.19.53-.07.64-.21.09-.37.04-.53.21-.11.11-.09.37-.05.87.04.47.08.51.05.71-.05.31-.17.44-.1.52,0,0,.02,0,.03.01-.43.09-.76.46-.76.92,0,.13.03.25.07.37-2.44-5.56-13.3-5.19-13.9,2.29-.38-3.11-2.41-5.89-5.89-5.92-3.42-.03-7.44,0-11.09,0v4.26h9.85c2.92,0,3.9,5.01.02,6.03h0s-12.32,0-12.32,0c-.11-.51-.54-.91-1.09-.91-.63,0-1.14.51-1.14,1.14s.51,1.14,1.14,1.14c.55,0,.98-.39,1.09-.91h2.45v2.8h-5.28c-.11-.51-.54-.91-1.09-.91-.63,0-1.14.51-1.14,1.14s.51,1.14,1.14,1.14c.55,0,.98-.39,1.09-.91h12.33v-.05l4.73,7.73h5.17v.04h17.91l1.74-4.21c.36-.19,7.66-.15,8.15-.03.73.17,1.76,3.55,1.98,4.38h5.08l-8.64-21.53ZM42.61,20.68c.31,0,.57.25.57.57s-.25.57-.57.57-.57-.25-.57-.57.25-.57.57-.57ZM7.96,28.52c0,.37-.3.66-.67.66s-.67-.3-.67-.67.3-.67.67-.67.66.29.67.66v.02ZM5.14,31.77c0,.37-.3.67-.67.67s-.67-.3-.67-.67.3-.67.67-.67.67.3.67.67h0ZM27.78,35.69v3.54l-4.42-7.29c3.27-1.15,4.7-4.43,4.5-7.53h4.59c.12,0,.06-1.39,1.16-1.92,1.7-.82,3.96-.09,3.93,1.99-.06,3.71-9.76,5.24-9.76,11.21Z"/>
    <path class="st13" d="M18.66,26.3H2.54c-.07-.56-.53-1-1.11-1-.63,0-1.14.51-1.14,1.14s.51,1.14,1.14,1.14c.52,0,.93-.35,1.07-.82h16.16v-.46ZM1.43,27.12c-.37,0-.67-.3-.67-.67s.3-.67.67-.67.67.3.67.67-.3.67-.67.67Z"/>
    <path class="st4" d="M7.52,23.54c-.63,0-1.14.51-1.14,1.14s.51,1.14,1.14,1.14c.55,0,.98-.39,1.09-.91h11.23c.11.51.54.91,1.09.91.63,0,1.14-.51,1.14-1.14s-.51-1.14-1.14-1.14c-.55,0-.98.39-1.09.91h-11.23c-.11-.51-.54-.91-1.09-.91ZM7.52,25.35c-.37,0-.67-.3-.67-.67s.3-.67.67-.67.67.3.67.67-.3.67-.67.67ZM20.93,24.01c.37,0,.67.3.67.67s-.3.67-.67.67-.67-.3-.67-.67.3-.67.67-.67Z"/>
    <path class="st12" d="M42.54,16.7l-.22-.72-.27.07-.31-.38.13-.27-.65-.37-.15.26-.49-.07-.11-.28-.71.2.08.3-.4.31-.25-.13-.37.64.25.16-.05.49-.3.1.21.72.29-.06.31.36-.15.27.66.38.14-.26.49.05.09.3.72-.23-.07-.28.4-.3.26.14.35-.66-.23-.13.04-.5.29-.1ZM40.62,17.64c-.43,0-.78-.35-.78-.78s.35-.78.78-.78.78.35.78.78-.35.78-.78.78Z"/>
    <path class="st18" d="M31.7,16.73c.53,0,.96-.43.96-.96s-.43-.96-.96-.96-.96.43-.96.96.43.96.96.96ZM31.7,15.2c.31,0,.57.25.57.57s-.25.57-.57.57-.57-.25-.57-.57.25-.57.57-.57Z"/>
    <path class="st2" d="M33.26,1.91c8.56,0,15.6,6.49,16.47,14.82h.95c-.88-8.85-8.34-15.76-17.42-15.76s-16.55,6.91-17.42,15.76h.95c.87-8.33,7.91-14.82,16.47-14.82Z"/>
    <path class="st7" d="M48.71,16.73c-.78-7.85-7.4-13.98-15.45-13.98s-14.67,6.13-15.45,13.98h.84c.77-7.38,7.02-13.14,14.6-13.14s13.83,5.76,14.6,13.14h.84Z"/>
    <path class="st16" d="M29.8,16.03c0-.41-.33-.74-.74-.74s-.74.33-.74.74c0,.08.02.15.04.22-.06-.04-.13-.06-.18-.06-.1.01-.1.11-.25.16-.11.04-.18.02-.41-.02-.45-.08-.46-.05-.5-.09-.16-.14,0-.34-.09-.76-.09-.39-.29-.49-.23-.76,0-.04.05-.2.18-.3.28-.19.66.1.76-.02.03-.03.02-.1,0-.18.08.03.17.05.27.05.4,0,.72-.32.72-.72s-.32-.72-.72-.72-.72.32-.72.72c0,.08.02.16.05.23,0,0,0,0,0,0-.33-.07-.69.33-.84.67-.18.42.1.55-.05,1.47-.01.09-.04.25.02.44.13.35.53.5.6.53.44.17.55-.08,1.42-.05.15,0,.26.02.3-.05.02-.03.02-.09,0-.15.12.08.25.13.4.13.41,0,.74-.33.74-.74ZM27.89,13.13c.23,0,.43.19.43.43s-.19.43-.43.43-.43-.19-.43-.43.19-.43.43-.43ZM28.62,16.03c0-.24.2-.44.44-.44s.44.2.44.44-.2.44-.44.44-.44-.2-.44-.44Z"/>
    <path class="st3" d="M26.3,13.87l-.3-1.01-.38.09-.43-.54.18-.37-.91-.52-.21.36-.69-.1-.16-.39-1,.28.11.41-.57.43-.23-.12c.24-.14.37-.15.45-.31.08-.16,0-.2.02-.69.02-.31.03-.47.14-.55.18-.14.4.06.55-.07.07-.06.07-.16.06-.32.14.11.31.19.51.19.46,0,.83-.37.83-.83,0-.35-.22-.64-.52-.76.08-.06.17-.13.36-.28.51-.38.56-.34.76-.55.19-.2.42-.53.34-.62-.09-.11-.64.19-.94.39-.37.24-.39.34-.89.78-.71.61-1.01.72-1.03,1.05-.02.25.15.35.07.55-.11.27-.45.19-.64.48-.16.25.02.41-.09.76-.13.38-.4.33-.73.76-.33.42-.54,1.1-.3,1.49.08.13.15.13.25.32,0,.01.02.04.04.08h-.01s.11.38.11.38c0,.09,0,.19-.04.27-.16.33-.62.17-.8.48-.16.28.02.74.28.99.06.06.31.29.69.3.09,0,.44,0,.64-.25.07-.09.11-.2.12-.31l.87.5.2-.36.69.08.13.42,1.02-.32-.1-.39.56-.42.36.19.49-.93-.32-.19.06-.7.41-.14ZM22.96,9.83c0-.27.22-.48.49-.48s.49.22.49.49-.22.49-.49.49-.49-.22-.49-.49c0,0,0,0,0,0ZM21.44,12.6l-.37.64c-.01-.05-.01-.09,0-.14.04-.21.2-.35.37-.49ZM21.42,13.46l-.07.69h0c-.03-.13-.08-.28-.14-.48-.07-.24-.11-.35-.13-.43l.35.22ZM21.94,15.95c0-.17-.06-.3-.12-.31-.09-.02-.14.26-.37.32-.24.07-.58-.15-.57-.32,0-.14.22-.16.39-.36l.37-.08.44.51-.13.24ZM23.61,15.17c-.6,0-1.09-.49-1.09-1.09s.49-1.09,1.09-1.09,1.09.49,1.09,1.09-.49,1.09-1.09,1.09Z"/>
  </g>
</svg>